<svg height="300" viewBox="0 0 950 300" width="950" xmlns="http://www.w3.org/2000/svg"><g fill="none" fill-rule="nonzero"><circle cx="119.390782" cy="119.390782" fill="#b1003e" r="119.390782" transform="translate(50.243808 31)"/><g fill="#fff" transform="translate(90.215411 68.352959)"><path d="m31.9516299 25.3280784c-9.5089378.4789232-15.7102876 2.3609314-18.6040492 5.6460247-2.8937617 3.2850932-3.1155846 7.8851874-.6654687 13.8002826 1.7062524 2.8231232 3.1849809 4.8891233 4.4361858 6.1980003 1.2512048 1.308877 3.1730244 2.7098888 5.7654589 4.2030354l-3.409903 1.9439188-2.3555559 7.1883792-5.7369163 10.481471-9.53805489 23.4690375-1.84332661 5.6084701c1.24275891 7.296798 2.33428576 11.361829 3.27458054 12.195092s2.66275899 1.175452 5.16739263 1.026568c2.51233103 2.804681 4.14753353 3.805387 4.90560753 3.002118.3018596-.319855.7789129-.779147.5590228-2.328906-.0984727-.694024-1.0672585-2.039413-.9929367-2.941941.0715376-.868719.8856075-1.836215 1.1546873-3.713409.1156769-.807003.1156769-2.362336 0-4.666l15.1144793-15.4744301 8.6933662 1.8338127 11.4899437 2.0396549 2.8945447.7818241c7.3197905-13.8412026 11.4625184-21.8836565 12.4281837-24.1273616.9656653-2.243705 1.5545388-4.6390386 1.7666205-7.1860006l-3.7366015-3.4351284c8.9446929-3.4362812 14.0267245-5.9453857 15.246095-7.5273134 1.8290557-2.3728916 5.1315834-9.534161 5.1315834-12.2450403 0-1.8072529.2675797-8.0783294.8027391-18.8132293-5.2314799.6564621-8.2842666.6564621-9.1583602 0-1.3111404-.9846932-2.5426015-4.913952-2.5426015-8.2182636 0-2.2028744-.6804452-5.17637825-2.0413356-8.92051155l-3.7015187-1.01918123c-.557755-2.75270108-1.1466285-4.12905162-1.7666205-4.12905162s-1.2766523.65685854-1.969981 1.97057561c-.7868824 3.01393812-1.1803236 4.88798684-1.1803236 5.62214618 0 1.10123899-.7896574 4.22597491 1.1803236 6.47602261 1.3133207 1.5000318 2.8571563 4.239453 4.6315068 8.2182636-1.105996 4.0666771-1.105996 6.6544698 0 7.7633782 1.658994 1.6633624 0 3.859688 0 5.132178 0 .8483267-.2983018 2.8208844-.8949053 5.9176731-10.1755594 1.7612688-16.0024535 2.3477638-17.4806825 1.759485-1.4782291-.5882789-3.8199476.0499423-7.0251556 1.9146634l-4.0734545 3.9060863c.7012569-3.0112958.7012569-5.2215701 0-6.630823-1.0518854-2.1138794-1.6365605-3.4470761-1.6365605-5.3677035 0-.7953209-1.1031229-2.6268963-1.1031229-3.9501284 0-.5380608.1491392-1.4318711.4474175-2.6814309l-2.9009344-2.7452677c.6817509-.0322104 1.0648895-.2241561 1.1494156-.5758369.0845262-.3516808-.5424022-.8187486-1.880785-1.4012032z"/><path d="m75.5087625 69.3793223c-3.2585124 9.5252836-5.6148079 15.7829309-7.0688865 18.7729419s-4.0543715 7.0787924-7.8008788 12.2663438c3.096802 3.534119 4.645203 5.96383 4.645203 7.289132 0 1.987953-.3425348 13.253283-1.4209721 18.529727-.7189582 3.517629-1.449647 21.15348-2.1920665 52.907554.0005214 5.507668-.5521223 8.914768-1.6579311 10.221301-1.6587132 1.9598-3.5848851 7.236244-3.5848851 8.671293s-5.8105793 6.551174-5.8105793 6.551174 1.6180469 3.002263 3.0194679 3.002263 7.6389959-3.911779 10.2259941-7.171334 4.4255812-2.931097 5.930232-4.315313c1.5046507-1.384216 4.2308525-5.109869 2.8677516-6.738083-.908734-1.085475-1.3631009-3.447506-1.3631009-7.086091 2.0640721-1.222073 3.6299828-1.833109 4.6977322-1.833109 1.601624 0 .2987404-5.715952 2.3797568-11.719696 1.3873442-4.002496 4.6893904-24.848894 9.9061385-62.539195 3.1995985-9.4173621 5.3658576-14.5791065 6.4987772-15.4852336s5.6526065-4.7412659 13.5590615-11.5054164c12.555961-7.7693364 19.558373-12.2830278 21.007238-13.5410743 2.173298-1.8870697 23.421406-7.9306979 26.326695-11.7806955 1.93686-2.5666651 6.050146-5.5379071 12.339857-8.913726v-2.3946156c3.967043-1.3617975 6.566554-2.0426963 7.798532-2.0426963 1.847968 0 4.32031 1.1323176 5.639312-1.7595967 1.319003-2.8919143.456713-6.1124479 2.299989-7.6288293 1.843275-1.5163813 4.896759-4.1835838 5.828444-5.7670545.931686-1.5834706 2.920598-2.7125472 1.926142-3.9979575-.994456-1.2854102-6.242805-.6616546-6.998696.5523001-.75589 1.2139547-4.732252 3.4124957-7.463749 5.8396156-1.820997 1.6180799-5.631433 3.6013331-11.431308 5.9497598-3.645417-3.2640577-6.042138-4.6269769-7.190165-4.0887574-1.722039.8073292-14.27397 7.3813265-20.125182 9.1409232-5.851211 1.7595967-26.0774 15.9353371-31.394441 17.2512004-5.31704 1.3158634-9.7970319 2.8333167-12.1217295 4.5880847s-5.2286133 1.0436744-8.5220993 1.3992212c-1.6618045.1793993-4.3339907 3.0148007-9.1934964 4.3176206-.6224421.5965316-1.1411612 1.6158713-1.5561573 3.0580188z"/><path d="m51.832364 96.3854983c-.4700221 2.3201531-.1907332 4.7849487 0 6.1156047 1.0288052 7.177494-5.9548041 9.007533-5.9548041 9.007533l3.6821285 3.17509c7.4026306-1.352192 7.4026306-10.776419 7.4026306-10.776419-.3481262-1.304699-.6917668-5.5707973-.5140881-6.7494681.0169603.0164463 4.3364304-5.1015094 8.0595369-13.0216746 1.9120403-4.067484 3.7195691-9.1599096 4.953436-12.5156191 1.1926372-3.2435783 1.4206862-5.3335657 1.2380176-5.9218812 0 .2015222-2.2222344-.7370521-4.3273177-1.3008763-.0724792 1.3025211-.7522621 3.7562321-1.7278701 6.2391557-.9915474 2.5234897-2.9170664 5.4582655-4.5150715 8.7470199-3.7766462 7.7724789-8.4993314 16.5512681-8.2965981 17.001535z"/></g><path d="m345.749749 190.516777c10.683101 5.647454 21.052818 8.45008 31.136518 8.45008 11.014186 0 16.835407-3.177005 18.487454-9.36253.608938-2.305263.920016-5.016088.920016-8.12989v-2.872574c0-3.202362-.224127-5.734994-.649428-7.563791-.329563-1.417121-.97955-2.500431-2.022088-3.380416-1.9165-1.65851-7.521505-3.367353-16.442652-4.746915-8.697582-1.357426-14.730689-2.644825-18.232387-3.91817-3.478817-1.265025-6.381078-2.669344-8.713066-4.233148-2.43432-1.632427-4.512755-3.682193-6.233573-6.148803-3.473972-5.042862-5.158286-11.807284-5.158286-20.241975v-.736557c0-17.678686 7.703284-28.7837852 22.782807-32.3609609 4.532538-1.0419626 9.618735-1.5583278 15.261203-1.5583278h.957525c13.063147 0 23.835534 1.897992 32.321133 5.7503495l2.765445 1.2554782-5.975717 17.582396-3.333565-1.43834c-9.277702-4.00307-17.747938-5.986459-25.409018-5.986459h-.662901c-8.182626 0-13.563952 1.473459-16.190917 4.100423-2.103286 2.103287-3.290209 6.21659-3.290209 12.434474 0 7.174783 1.719936 11.32174 4.871879 13.108586 2.575896 1.393517 7.638318 2.737318 15.024272 3.909692 7.800761 1.238216 13.621439 2.293136 17.489671 3.17228 4.216637.958326 7.859887 2.557463 10.917287 4.822277 6.495132 4.871349 9.590306 13.687067 9.590306 26.177907v.957524c0 19.087897-8.05058 31.010555-23.834254 34.778866-4.624362 1.143101-9.017358 1.718374-13.178576 1.718374-3.970084 0-7.587342-.138641-10.854409-.417228-3.303819-.281721-6.666082-.780307-10.070398-1.491698-8.063855-1.643589-14.877587-4.130731-20.434609-7.485913l-2.589212-1.563298 7.647386-16.221729zm95.897189-95.3140061c-.010424-.006149-.019424-.0108804-.026901-.0143177.003084.0014177.006301.002859.009651.0043228zm2.857949 7.0066701c-3.43747 0-5.821116-.526619-7.422523-2.128663-1.814482-1.8749645-2.692239-4.3765734-2.692239-7.3156684 0-2.3977742.147238-4.1646363.50025-5.4409085.397529-1.4372205 1.048555-2.6558082 1.99733-3.6045832 1.637665-1.6376648 3.914079-2.3809836 6.65526-2.3809836 2.160692 0 3.752424.1120938 4.89849.3786208 1.429104.3323498 2.680204 1.0019526 3.680615 2.0023628 1.659033 1.6590337 2.380983 4.0204118 2.380983 6.9467514 0 2.3567267-.121865 4.0850019-.408842 5.3111747-.339475 1.4504829-.957566 2.7033713-1.972141 3.7926153-1.728378 1.7283777-4.287634 2.4392817-7.617183 2.4392817zm9.480939 18.019426v94.354645h-18.630911l-.158579-94.354645zm52.385602 95.82776c-13.071484 0-22.186155-5.025847-26.688894-14.988337-2.438294-5.300638-3.804873-10.912899-4.095955-16.813922-.272628-5.526918-.409177-10.393033-.409177-14.601678 0-4.168869.036999-8.374414.110993-12.616764.076142-4.365427.394557-8.415671.957608-12.152284.577476-3.832336 1.490299-7.311648 2.745297-10.435792 1.335219-3.323844 3.27192-6.178684 5.794128-8.52892 5.194963-4.852438 13.364108-7.163178 24.421746-7.163178 8.851043 0 17.031344 1.278735 24.526545 3.843789v-39.7748506l18.931163-1.8246904v89.941665c0 16.841141.462957 29.97451 1.383497 39.373706l.33243 3.394289-17.418241 1.402812-1.40307-8.009191c-9.522981 5.950304-19.265867 8.953346-29.18807 8.953346zm5.082246-79.548204c-5.473546 0-9.040674.443122-10.32893 1.103766-1.406093.721074-2.415304 1.603073-3.089538 2.655536-.775025 1.209794-1.466238 3.02552-2.015574 5.390738-1.065053 4.862199-1.616444 13.157033-1.616444 24.767612v1.620426c0 10.510049 1.126897 17.662398 3.153651 21.219863 1.936935 3.32568 5.642942 5.037592 11.613507 5.037592h1.104836c6.155472 0 12.821051-1.99514 20.021062-6.056645 1.357139-.757473 2.574852-1.509017 3.652515-2.252571-.193222-4.709133-.288695-11.225151-.288688-19.649854l.068141-30.322773c-7.686008-2.345513-15.108761-3.51369-22.274538-3.51369zm85.483636 55.681221c2.766726 4.325445 8.642054 6.629902 18.020689 6.629902 9.957341 0 19.476716-1.946079 28.585672-5.84321l3.319378-1.420146 5.811805 16.960983-2.955941 1.185232c-10.573494 4.239614-22.216577 6.354222-34.908225 6.354222-7.422175 0-13.776154-.774876-19.040221-2.33865-8.909194-2.545484-15.005265-7.957883-17.992435-16.074067-2.564018-7.064132-3.810273-17.237635-3.810273-30.605999v-3.756443c0-16.386131 3.490111-28.152033 10.755781-35.197446 6.574599-6.298354 17.126146-9.32827 31.560263-9.32827 14.268244 0 24.349253 3.65096 29.94921 11.230701 2.683442 3.633827 4.441409 7.994139 5.286616 13.038115.79099 4.720424 1.187758 9.238459 1.187758 13.554227 0 6.517569-.149806 11.586007-.453514 15.230498l-.245425 2.945098-2.952635.125644c-6.968775.296544-13.227224.444965-18.777419.444965h-11.858575c-10.303836 0-18.683214-.37101-25.164826-1.121574.286266 8.633133 1.565377 14.664805 3.682317 17.986218zm36.617946-33.807101v-3.718797c0-6.953209-1.287351-11.680531-3.624233-14.247282-2.59728-2.864646-7.482098-4.423631-14.825712-4.423631-8.927583 0-14.715739 1.844577-17.545519 5.217039-2.489266 2.951558-3.999397 8.696607-4.307485 17.172671zm60.417352 56.200969h-18.931163v-131.4279257l18.931163-2.0527767v75.4138454c.472053-.323373.992529-.726586 1.559343-1.218159 2.71229-2.352252 5.117519-4.589953 7.214999-6.711267 2.116536-2.140588 4.309504-4.490197 6.553171-7.019962 8.211426-9.474723 13.598558-16.123705 16.101033-19.85381l.995991-1.48459h21.508819l-2.068966 4.702197c-1.245928 2.831653-3.886145 6.543641-8.000245 11.334062l-9.924432 11.182024c-5.431325 5.829954-9.796811 10.157914-13.12728 13.005338-1.001756.856463-1.901995 1.605236-2.712802 2.252007 3.299248 2.240362 7.090519 6.171712 11.52013 11.824824l31.787689 40.054193h-24.066655l-1.006204-1.319158-18.705405-24.523234c-8.063673-10.537754-14.177298-15.946835-17.454732-16.228804zm80.00741-119.3807411c-.010424-.006149-.019424-.0108804-.026901-.0143177.003084.0014177.006301.002859.009651.0043228zm3.857949 7.0066701c-3.43747 0-5.821116-.526619-7.422523-2.128663-1.814482-1.8749645-2.692239-4.3765734-2.692239-7.3156684 0-2.3977742.147238-4.1646363.50025-5.4409085.397529-1.4372205 1.048555-2.6558082 1.99733-3.6045832 1.637665-1.6376648 3.914079-2.3809836 6.65526-2.3809836 2.160692 0 3.752424.1120938 4.89849.3786208 1.429104.3323498 2.680204 1.0019526 3.680615 2.0023628 1.659033 1.6590337 2.380983 4.0204118 2.380983 6.9467514 0 2.3567267-.121865 4.0850019-.408842 5.3111747-.339475 1.4504829-.957566 2.7033713-1.972141 3.7926153-1.728378 1.7283777-4.287634 2.4392817-7.617183 2.4392817zm9.480939 18.019426v94.354645h-18.630911l-.158579-94.354645zm54.343127 95.82776c-13.441113 0-22.814-4.996991-27.475752-14.93864-2.566736-5.347367-4.035832-11.984531-4.451757-19.941953-.149466-3.487526-.224042-7.328195-.224042-11.523344 0-4.168869.036999-8.374414.110994-12.616764.076141-4.365427.394556-8.415671.957607-12.152284.577476-3.832336 1.490299-7.311648 2.745297-10.435792 1.335219-3.323844 3.27192-6.178684 5.794128-8.52892 5.173019-4.831941 12.866101-7.163178 22.948631-7.163178 7.394336 0 12.207085 1.861019 26.977316 9.1513l.963453-7.678185h16.914361l.077731 127.868008h-18.933201v-39.176014c-8.378488 4.746626-17.194642 7.135766-26.404766 7.135766zm4.124721-79.548204c-5.473546 0-9.040674.443122-10.32893 1.103766-1.406093.721074-2.415304 1.603073-3.089538 2.655536-.775025 1.209794-1.466238 3.02552-2.015574 5.390738-1.065053 4.862199-1.616444 13.157033-1.616444 24.767612v1.620426c0 10.330885 1.255707 17.431334 3.567782 21.173004 2.027294 3.35425 5.848947 5.084451 11.935934 5.084451h1.104836c6.205739 0 12.59862-1.722904 19.242753-5.229245 1.272838-.651941 2.432683-1.309818 3.479226-1.972237v-47.560472c-10.177287-4.987251-16.251251-7.033579-22.280045-7.033579z" fill="#000"/></g></svg>